<?xml version="1.0" standalone="no"?>
<!DOCTYPE svg PUBLIC "-//W3C//DTD SVG 20010904//EN"
 "http://www.w3.org/TR/2001/REC-SVG-20010904/DTD/svg10.dtd">
<svg version="1.0" xmlns="http://www.w3.org/2000/svg"
 width="1200.000000pt" height="1200.000000pt" viewBox="0 0 1200.000000 1200.000000"
 preserveAspectRatio="xMidYMid meet">
<metadata>
Created by potrace 1.11, written by Peter Selinger 2001-2013
</metadata>
<g transform="translate(0.000000,1200.000000) scale(0.100000,-0.100000)"
fill="#000000" stroke="none">
<path d="M3675 11995 c-5 -2 -44 -11 -85 -20 -519 -116 -997 -460 -1235 -891
-136 -245 -196 -486 -196 -783 0 -162 -2 -150 26 -145 l24 4 0 -3513 c0 -3010
3 -3523 15 -3587 48 -250 209 -507 416 -664 81 -62 106 -75 372 -191 134 -59
261 -115 283 -125 22 -10 92 -40 155 -68 221 -96 535 -234 575 -251 22 -10 74
-33 115 -51 41 -18 103 -46 138 -61 35 -16 65 -29 67 -29 3 0 35 -14 72 -31
38 -17 120 -54 183 -81 127 -55 911 -399 975 -428 22 -10 186 -82 365 -160
179 -78 349 -153 378 -166 29 -13 54 -24 57 -24 2 0 32 -13 67 -29 35 -16 97
-43 138 -61 41 -18 98 -42 125 -55 28 -12 100 -44 160 -70 99 -43 160 -69 250
-110 17 -8 181 -80 365 -160 184 -81 353 -155 375 -165 105 -47 219 -63 347
-48 58 6 157 67 214 130 21 24 89 84 149 133 104 84 376 307 420 344 11 9 58
48 105 86 47 38 114 93 150 123 68 57 78 65 151 124 44 35 47 36 95 27 131
-25 326 4 433 66 101 59 196 161 247 265 45 94 56 128 74 250 11 68 7 7192 -3
7240 -46 208 -140 424 -251 570 -87 115 -206 229 -316 301 -84 56 -132 78
-435 204 -154 63 -289 120 -300 125 -21 10 -205 87 -565 237 -113 47 -218 91
-235 98 -16 8 -145 62 -285 120 -140 59 -350 147 -467 196 -117 49 -214 89
-217 89 -3 0 -29 11 -58 25 -29 13 -179 76 -332 140 -154 64 -294 122 -310
129 -17 8 -69 30 -116 49 -326 136 -788 329 -805 337 -11 5 -204 86 -430 180
-225 94 -446 186 -490 205 -44 18 -156 65 -249 104 l-168 71 -262 -1 c-143 0
-265 -2 -271 -4z m495 -395 c41 -17 89 -37 105 -45 17 -7 113 -48 215 -90 102
-42 394 -165 650 -272 256 -108 485 -204 510 -213 25 -10 92 -38 150 -63 58
-24 242 -101 410 -172 168 -70 319 -133 335 -140 49 -21 328 -138 490 -205 83
-35 173 -73 202 -86 28 -13 58 -24 65 -24 8 0 18 -4 23 -8 6 -5 33 -18 60 -29
28 -11 219 -91 425 -178 206 -87 411 -172 455 -190 44 -18 100 -41 125 -52 25
-11 59 -26 75 -33 17 -6 181 -75 365 -152 184 -77 373 -156 420 -175 178 -72
225 -101 334 -208 148 -145 253 -348 273 -528 8 -77 9 -7065 0 -7128 -11 -90
-69 -179 -139 -215 -43 -22 -142 -26 -211 -8 -49 13 -66 13 -143 -1 -48 -8
-88 -15 -89 -15 -2 0 -56 -44 -122 -97 -320 -261 -512 -419 -557 -457 -27 -22
-54 -44 -60 -48 -8 -4 -11 871 -10 3394 1 1870 -2 3414 -7 3432 -4 17 -10 44
-13 59 -30 171 -153 395 -294 537 -126 126 -189 166 -407 260 -177 77 -204 89
-327 145 -42 19 -55 14 -100 -40 -87 -104 -151 -281 -172 -480 -3 -22 -5 -667
-5 -1434 l-1 -1394 -62 87 c-35 49 -70 98 -78 110 -8 11 -61 86 -118 166 -57
80 -114 161 -128 180 -14 19 -71 99 -127 177 -56 78 -158 221 -226 317 l-124
175 -51 -42 c-28 -23 -53 -44 -56 -47 -3 -4 -34 -30 -70 -59 -36 -30 -67 -57
-70 -60 -3 -3 -45 -40 -95 -81 -49 -41 -95 -79 -101 -85 -6 -5 -35 -30 -64
-55 -30 -25 -71 -60 -92 -79 l-38 -33 -1 133 c-4 719 -1 2406 4 2486 10 135
14 170 38 290 34 173 89 304 164 390 l43 49 -47 19 c-25 10 -88 38 -139 62
-52 24 -97 43 -101 43 -4 0 -29 11 -57 24 -44 21 -87 40 -149 67 -11 4 -55 24
-98 44 -43 19 -80 35 -82 35 -2 0 -86 36 -187 81 -238 105 -267 118 -303 135
-41 18 -741 324 -895 391 -69 30 -153 68 -188 84 -35 16 -66 29 -68 29 -3 0
-31 12 -62 26 -31 14 -163 72 -292 129 -273 119 -321 140 -375 165 -101 47
-180 67 -262 66 -29 -1 -53 -1 -53 0 0 8 29 83 51 132 16 35 29 66 29 69 0 3
30 52 67 107 61 91 197 241 291 320 110 92 355 221 510 270 147 46 225 61 377
72 50 4 91 8 93 9 8 7 96 -18 162 -45z"/>
</g>
</svg>
